<svg width="151" height="40" viewBox="0 0 151 40" fill="none" xmlns="http://www.w3.org/2000/svg">
<path d="M0.916748 30.376V3.54979C0.916748 3.35986 1.14487 3.26236 1.28283 3.39331L25.7486 26.617C25.8335 26.6976 25.9673 26.6962 26.0506 26.6139L49.5168 3.41093C49.6536 3.2757 49.8861 3.37229 49.8861 3.56433V30.376C49.8861 30.4954 49.789 30.5921 49.6694 30.5921H1.13343C1.01376 30.5921 0.916748 30.4954 0.916748 30.376Z" fill="#1235E2"/>
<path d="M62.6277 30.429C62.469 30.429 62.3103 30.3948 62.1516 30.3265C62.0155 30.2353 61.9475 30.11 61.9475 29.9505C61.9475 29.7682 62.0269 29.6314 62.1856 29.5403C62.3443 29.4263 62.5257 29.3352 62.7298 29.2668C63.0699 29.1529 63.3646 29.0276 63.614 28.8908C63.8861 28.7313 64.0222 28.4237 64.0222 27.9679V20.1402C64.0222 19.6389 63.9542 19.2173 63.8181 18.8755C63.6821 18.5109 63.3986 18.2944 62.9678 18.226C62.8771 18.2032 62.7864 18.1463 62.6957 18.0551C62.6277 17.9639 62.5937 17.8158 62.5937 17.6107C62.5937 17.2917 62.7071 17.098 62.9338 17.0296C63.5007 16.8929 64.0902 16.7334 64.7024 16.5511C65.3373 16.346 65.9381 16.1409 66.505 15.9358C67.0945 15.7079 67.6047 15.4687 68.0355 15.218C68.1035 15.1952 68.1715 15.161 68.2395 15.1154C68.3076 15.0699 68.3756 15.0471 68.4436 15.0471C68.6477 15.0471 68.7497 15.1724 68.7497 15.4231C68.7497 15.6054 68.7157 15.913 68.6477 16.346C68.6023 16.779 68.5796 17.155 68.5796 17.474C68.5796 17.7019 68.6023 17.8386 68.6477 17.8842H68.7157C69.4186 17.2005 70.1782 16.6422 70.9944 16.2093C71.8107 15.7763 72.7403 15.5598 73.7833 15.5598C74.4862 15.5598 75.1324 15.8105 75.722 16.3118C76.3115 16.7904 76.7536 17.417 77.0484 18.1918H77.1844C77.8646 17.3715 78.6242 16.7334 79.4632 16.2776C80.3248 15.7991 81.2884 15.5598 82.3541 15.5598C83.057 15.5598 83.6919 15.7649 84.2587 16.1751C84.8256 16.5625 85.279 17.1208 85.6192 17.85C85.9593 18.5792 86.1293 19.4452 86.1293 20.4478V27.9679C86.1293 28.4237 86.254 28.7313 86.5034 28.8908C86.7755 29.0276 87.0816 29.1529 87.4217 29.2668C87.6031 29.3352 87.7618 29.4263 87.8979 29.5403C88.0339 29.6314 88.1019 29.7682 88.1019 29.9505C88.1019 30.11 88.0453 30.2353 87.9319 30.3265C87.8185 30.3948 87.6825 30.429 87.5238 30.429C87.0703 30.429 86.6395 30.4062 86.2313 30.3607C85.8459 30.3379 85.4604 30.3151 85.075 30.2923C84.7122 30.2695 84.3267 30.2581 83.9186 30.2581C83.5331 30.2581 83.1704 30.2695 82.8302 30.2923C82.4901 30.3151 82.15 30.3379 81.8099 30.3607C81.4698 30.4062 81.073 30.429 80.6195 30.429C80.4608 30.429 80.3248 30.3948 80.2114 30.3265C80.098 30.2353 80.0413 30.11 80.0413 29.9505C80.0413 29.7682 80.098 29.62 80.2114 29.5061C80.3474 29.3922 80.5175 29.3124 80.7216 29.2668C81.0163 29.1757 81.2431 29.0617 81.4018 28.925C81.5605 28.7655 81.6399 28.5148 81.6399 28.173V21.1657C81.6399 20.596 81.5605 20.106 81.4018 19.6958C81.2431 19.2857 81.0163 18.9666 80.7216 18.7387C80.4495 18.4881 80.132 18.3627 79.7693 18.3627C79.4745 18.3627 79.1457 18.4311 78.7829 18.5678C78.4428 18.6818 78.1027 18.8869 77.7626 19.1831C77.4452 19.4566 77.2865 19.9351 77.2865 20.6188V27.9679C77.2865 28.4237 77.3771 28.7313 77.5585 28.8908C77.7399 29.0276 78.0007 29.1529 78.3408 29.2668C78.5222 29.3124 78.6809 29.3922 78.817 29.5061C78.953 29.62 79.021 29.7682 79.021 29.9505C79.021 30.11 78.953 30.2353 78.817 30.3265C78.7036 30.3948 78.5789 30.429 78.4428 30.429C77.9893 30.429 77.5812 30.4062 77.2184 30.3607C76.8557 30.3379 76.5042 30.3151 76.1641 30.2923C75.8467 30.2695 75.4839 30.2581 75.0757 30.2581C74.6903 30.2581 74.3275 30.2695 73.9874 30.2923C73.67 30.3151 73.3298 30.3379 72.9671 30.3607C72.627 30.4062 72.2302 30.429 71.7767 30.429C71.6406 30.429 71.5159 30.3948 71.4026 30.3265C71.2892 30.2353 71.2325 30.11 71.2325 29.9505C71.2325 29.7682 71.2892 29.6314 71.4026 29.5403C71.5386 29.4263 71.6973 29.3352 71.8787 29.2668C72.1961 29.1529 72.4342 29.0276 72.5929 28.8908C72.7517 28.7541 72.831 28.5148 72.831 28.173V21.1657C72.831 20.596 72.7517 20.1174 72.5929 19.73C72.4342 19.3198 72.2188 19.0008 71.9467 18.7729C71.6746 18.5223 71.3459 18.3969 70.9604 18.3969C70.6883 18.3969 70.3709 18.4539 70.0081 18.5678C69.668 18.6818 69.3052 18.8755 68.9198 19.1489C68.625 19.354 68.4776 19.7984 68.4776 20.482V27.9679C68.4776 28.3781 68.5456 28.6743 68.6817 28.8566C68.8404 29.0162 69.0898 29.1529 69.4299 29.2668C69.6113 29.3352 69.7587 29.4263 69.8721 29.5403C70.0081 29.6314 70.0761 29.7682 70.0761 29.9505C70.0761 30.0872 70.0194 30.2011 69.9061 30.2923C69.7927 30.3834 69.668 30.429 69.532 30.429C69.0785 30.429 68.6703 30.4062 68.3076 30.3607C67.9675 30.3379 67.6273 30.3151 67.2872 30.2923C66.9698 30.2695 66.607 30.2581 66.1989 30.2581C65.8134 30.2581 65.428 30.2695 65.0425 30.2923C64.6797 30.3151 64.2943 30.3379 63.8861 30.3607C63.5007 30.4062 63.0812 30.429 62.6277 30.429Z" fill="white"/>
<path d="M89.2461 30.429C89.1101 30.429 88.9854 30.3948 88.872 30.3265C88.7586 30.2353 88.7019 30.1214 88.7019 29.9847C88.7019 29.8024 88.7586 29.6542 88.872 29.5403C88.9854 29.4263 89.1327 29.3466 89.3141 29.301C89.9037 29.1643 90.3118 29.0162 90.5385 28.8566C90.7879 28.6743 90.9126 28.4009 90.9126 28.0363V20.6529C90.9126 19.8781 90.7879 19.3312 90.5385 19.0122C90.3118 18.6704 89.949 18.4653 89.4502 18.3969C89.3141 18.3741 89.2121 18.3058 89.1441 18.1918C89.076 18.0779 89.042 17.9412 89.042 17.7816C89.042 17.4398 89.1667 17.2461 89.4162 17.2005C90.5952 16.9727 91.6382 16.6536 92.5452 16.2434C93.4748 15.8333 94.189 15.5142 94.6879 15.2863C95.0506 15.104 95.2774 15.0129 95.3681 15.0129C95.6628 15.0129 95.8102 15.1496 95.8102 15.4231C95.7875 15.8105 95.7309 16.3004 95.6402 16.8929C95.5721 17.4626 95.5041 18.0551 95.4361 18.6704C95.3908 19.2857 95.3681 19.8781 95.3681 20.4478V28.0021C95.3681 28.3211 95.4814 28.5718 95.7082 28.7541C95.9576 28.9364 96.3884 29.1187 97.0006 29.301C97.182 29.3694 97.3294 29.4491 97.4427 29.5403C97.5561 29.6314 97.6128 29.7682 97.6128 29.9505C97.6128 30.2467 97.4427 30.3948 97.1026 30.3948C96.6718 30.3948 96.2184 30.3834 95.7422 30.3607C95.266 30.3379 94.8012 30.3151 94.3477 30.2923C93.9169 30.2695 93.4975 30.2581 93.0893 30.2581C92.7039 30.2581 92.2958 30.2695 91.865 30.2923C91.4568 30.3151 91.026 30.3379 90.5725 30.3607C90.1417 30.4062 89.6996 30.429 89.2461 30.429ZM92.9873 13.4747C92.2844 13.4747 91.6609 13.2126 91.1167 12.6885C90.5952 12.1644 90.3345 11.5377 90.3345 10.8085C90.3345 10.0337 90.5952 9.38424 91.1167 8.86011C91.6609 8.33599 92.2844 8.07392 92.9873 8.07392C93.7809 8.07392 94.4384 8.33599 94.9599 8.86011C95.4814 9.38424 95.7422 10.0337 95.7422 10.8085C95.7422 11.5377 95.4814 12.1644 94.9599 12.6885C94.4384 13.2126 93.7809 13.4747 92.9873 13.4747Z" fill="white"/>
<path d="M98.7325 30.429C98.5738 30.429 98.4151 30.3948 98.2563 30.3265C98.1203 30.2353 98.0523 30.11 98.0523 29.9505C98.0523 29.7682 98.1316 29.6314 98.2904 29.5403C98.4491 29.4263 98.6305 29.3352 98.8345 29.2668C99.1746 29.1529 99.4694 29.0276 99.7188 28.8908C99.9909 28.7313 100.127 28.4237 100.127 27.9679V20.1402C100.127 19.6389 100.048 19.2173 99.8889 18.8755C99.7528 18.5336 99.4808 18.3172 99.0726 18.226C98.9819 18.2032 98.8912 18.1463 98.8005 18.0551C98.7325 17.9639 98.6985 17.8158 98.6985 17.6107C98.6985 17.2917 98.8119 17.098 99.0386 17.0296C99.8095 16.8473 100.648 16.6081 101.555 16.3118C102.485 15.9928 103.279 15.6624 103.936 15.3205C104.027 15.275 104.129 15.218 104.242 15.1496C104.356 15.0813 104.458 15.0471 104.548 15.0471C104.684 15.0471 104.764 15.0926 104.786 15.1838C104.832 15.2522 104.854 15.3433 104.854 15.4573C104.854 15.6396 104.82 15.9358 104.752 16.346C104.707 16.7334 104.684 17.0866 104.684 17.4056C104.684 17.4968 104.684 17.5993 104.684 17.7133C104.707 17.8272 104.73 17.8956 104.752 17.9184C105.523 17.1664 106.306 16.5853 107.099 16.1751C107.893 15.7649 108.811 15.5598 109.854 15.5598C111.033 15.5598 112.019 16.0042 112.813 16.8929C113.629 17.7589 114.037 18.9438 114.037 20.4478V27.9679C114.037 28.4237 114.162 28.7313 114.412 28.8908C114.684 29.0276 114.99 29.1529 115.33 29.2668C115.511 29.3352 115.67 29.4263 115.806 29.5403C115.942 29.6314 116.01 29.7682 116.01 29.9505C116.01 30.11 115.942 30.2353 115.806 30.3265C115.693 30.3948 115.568 30.429 115.432 30.429C114.978 30.429 114.548 30.4062 114.139 30.3607C113.754 30.3379 113.369 30.3151 112.983 30.2923C112.62 30.2695 112.235 30.2581 111.827 30.2581C111.441 30.2581 111.056 30.2695 110.67 30.2923C110.285 30.3151 109.899 30.3379 109.514 30.3607C109.129 30.4062 108.709 30.429 108.256 30.429C108.12 30.429 107.983 30.3948 107.847 30.3265C107.734 30.2353 107.677 30.11 107.677 29.9505C107.677 29.7682 107.745 29.6314 107.881 29.5403C108.018 29.4263 108.176 29.3352 108.358 29.2668C108.698 29.1529 108.981 29.0276 109.208 28.8908C109.435 28.7313 109.548 28.4237 109.548 27.9679V21.1657C109.548 20.2997 109.344 19.6275 108.936 19.1489C108.55 18.6476 108.029 18.3855 107.371 18.3627C106.872 18.3627 106.43 18.4425 106.045 18.602C105.659 18.7615 105.263 18.978 104.854 19.2515C104.764 19.3426 104.696 19.4452 104.65 19.5591C104.605 19.6731 104.582 19.787 104.582 19.9009V27.9679C104.582 28.4237 104.707 28.7313 104.957 28.8908C105.206 29.0276 105.489 29.1529 105.807 29.2668C106.26 29.4036 106.487 29.6314 106.487 29.9505C106.487 30.0872 106.43 30.2011 106.317 30.2923C106.204 30.3834 106.068 30.429 105.909 30.429C105.455 30.429 105.036 30.4062 104.65 30.3607C104.265 30.3379 103.902 30.3151 103.562 30.2923C103.222 30.2695 102.848 30.2581 102.44 30.2581C102.054 30.2581 101.657 30.2695 101.249 30.2923C100.864 30.3151 100.456 30.3379 100.025 30.3607C99.6168 30.4062 99.186 30.429 98.7325 30.429Z" fill="white"/>
<path d="M127.955 30.9759C127.887 30.9759 127.785 30.8962 127.649 30.7367C127.536 30.5999 127.479 30.486 127.479 30.3948C127.525 30.053 127.559 29.734 127.581 29.4377C127.627 29.1187 127.649 28.8339 127.649 28.5832V28.3781C127.196 29.0845 126.561 29.6656 125.745 30.1214C124.951 30.5771 124.089 30.805 123.16 30.805C121.89 30.805 120.756 30.486 119.759 29.8479C118.784 29.2099 118.013 28.3439 117.446 27.2501C116.879 26.1563 116.596 24.9599 116.596 23.661C116.596 22.1114 116.936 20.7327 117.616 19.5249C118.296 18.3172 119.249 17.3715 120.473 16.6878C121.697 15.9814 123.114 15.6282 124.724 15.6282C125.064 15.6282 125.416 15.6624 125.779 15.7307C126.164 15.7763 126.516 15.8447 126.833 15.9358C127.15 16.0042 127.298 16.0384 127.275 16.0384C127.366 16.0384 127.411 15.8902 127.411 15.594V11.5263C127.411 10.7059 127.309 10.1135 127.105 9.74885C126.901 9.38424 126.561 9.15636 126.085 9.0652C125.813 8.99684 125.677 8.82593 125.677 8.55247C125.677 8.25623 125.801 8.08532 126.051 8.03974C126.89 7.85744 127.751 7.62955 128.636 7.3561C129.543 7.05985 130.279 6.7864 130.846 6.53573C131.141 6.399 131.345 6.31924 131.458 6.29645C131.572 6.25088 131.64 6.22809 131.663 6.22809C131.912 6.22809 132.037 6.36482 132.037 6.63827C132.037 6.56991 132.025 6.66106 132.003 6.91173C131.98 7.13961 131.957 7.44725 131.935 7.83465C131.912 8.22205 131.889 8.60944 131.867 8.99684L131.697 26.2246C131.697 26.9994 131.753 27.5577 131.867 27.8995C131.98 28.2414 132.184 28.4123 132.479 28.4123C132.592 28.4123 132.706 28.4009 132.819 28.3781C132.955 28.3553 133.284 28.3325 133.805 28.3097C134.123 28.2869 134.281 28.4009 134.281 28.6516C134.281 28.8339 134.213 29.0276 134.077 29.2327C133.941 29.4377 133.817 29.5403 133.703 29.5403C132.887 29.6314 132.025 29.7796 131.118 29.9847C130.234 30.1898 129.372 30.4518 128.534 30.7708C128.397 30.8392 128.284 30.8848 128.193 30.9076C128.103 30.9531 128.023 30.9759 127.955 30.9759ZM124.894 28.4806C125.234 28.4806 125.654 28.3895 126.153 28.2072C126.674 28.0249 127.094 27.7628 127.411 27.421L127.377 19.8668C127.377 19.4566 127.218 19.0578 126.901 18.6704C126.606 18.2602 126.221 17.9184 125.745 17.6449C125.291 17.3715 124.838 17.2347 124.384 17.2347C123.84 17.2347 123.33 17.4626 122.854 17.9184C122.4 18.3513 122.026 18.978 121.731 19.7984C121.459 20.596 121.323 21.5759 121.323 22.738C121.323 23.6724 121.414 24.4927 121.595 25.1992C121.799 25.9056 122.071 26.5095 122.412 27.0108C122.752 27.4894 123.137 27.854 123.568 28.1046C123.999 28.3553 124.441 28.4806 124.894 28.4806Z" fill="white"/>
<path d="M136.357 40C135.768 40 135.201 39.7949 134.657 39.3847C134.113 38.9746 133.841 38.4618 133.841 37.8465C133.841 37.4136 133.954 36.9806 134.181 36.5476C134.407 36.1374 134.759 35.9323 135.235 35.9323C135.598 35.9323 135.961 35.9893 136.323 36.1033C136.709 36.24 137.072 36.297 137.412 36.2742C137.752 36.2286 137.99 36.1374 138.126 36.0007C138.262 35.8868 138.421 35.6589 138.602 35.3171C138.761 35.0436 138.908 34.7702 139.044 34.4967C139.203 34.246 139.373 33.9156 139.554 33.5054C139.758 33.118 140.008 32.6053 140.303 31.9672C140.575 31.3519 140.711 30.805 140.711 30.3265C140.711 29.9847 140.654 29.677 140.541 29.4036C140.45 29.1073 140.348 28.8225 140.235 28.549L136.051 19.0122C135.847 18.4881 135.62 18.0551 135.371 17.7133C135.122 17.3715 134.782 17.1322 134.351 16.9955C134.147 16.9043 133.988 16.8131 133.875 16.722C133.761 16.6081 133.705 16.4485 133.705 16.2434C133.705 16.0839 133.807 15.9814 134.011 15.9358C134.215 15.8902 134.396 15.8674 134.555 15.8674C135.099 15.8674 135.552 15.8788 135.915 15.9016C136.301 15.9244 136.641 15.9472 136.936 15.97C137.23 15.9928 137.525 16.0042 137.82 16.0042C138.319 16.0042 138.738 15.9928 139.078 15.97C139.418 15.9472 139.781 15.9244 140.167 15.9016C140.552 15.8788 141.006 15.8674 141.527 15.8674C141.686 15.8674 141.856 15.9016 142.037 15.97C142.219 16.0384 142.309 16.1523 142.309 16.3118C142.309 16.5169 142.219 16.665 142.037 16.7562C141.878 16.8245 141.708 16.9043 141.527 16.9955C141.278 17.0866 141.085 17.2233 140.949 17.4056C140.813 17.5879 140.745 17.8842 140.745 18.2944C140.745 18.4767 140.767 18.6932 140.813 18.9438C140.881 19.1945 140.983 19.5021 141.119 19.8668L143.228 25.0282C143.25 25.0966 143.284 25.1308 143.33 25.1308C143.352 25.1308 143.386 25.0966 143.432 25.0282L145.166 19.7984C145.234 19.6161 145.291 19.3996 145.336 19.1489C145.404 18.8755 145.438 18.6362 145.438 18.4311C145.438 18.0437 145.325 17.7361 145.098 17.5082C144.871 17.2575 144.633 17.0866 144.384 16.9955C144.203 16.9271 144.021 16.8473 143.84 16.7562C143.681 16.665 143.602 16.5169 143.602 16.3118C143.602 16.1523 143.692 16.0384 143.874 15.97C144.055 15.9016 144.225 15.8674 144.384 15.8674C144.996 15.8902 145.472 15.9244 145.812 15.97C146.153 15.9928 146.504 16.0042 146.867 16.0042C147.094 16.0042 147.298 16.0042 147.479 16.0042C147.683 15.9814 147.921 15.9586 148.193 15.9358C148.465 15.913 148.794 15.8902 149.18 15.8674C149.338 15.8674 149.508 15.8902 149.69 15.9358C149.894 15.9814 149.996 16.0839 149.996 16.2434C149.996 16.4485 149.939 16.6081 149.826 16.722C149.735 16.8131 149.588 16.9043 149.384 16.9955C148.953 17.1322 148.567 17.3942 148.227 17.7816C147.887 18.1463 147.604 18.5906 147.377 19.1147L142.309 31.3519C142.128 31.8077 141.924 32.2976 141.697 32.8218C141.47 33.3687 141.232 33.927 140.983 34.4967C140.756 35.0664 140.518 35.6475 140.269 36.24C140.019 36.8325 139.77 37.4136 139.52 37.9833C139.248 38.6441 138.829 39.1455 138.262 39.4873C137.695 39.8291 137.06 40 136.357 40Z" fill="white"/>
</svg>
